# xmcd
#
# Track frame offsets:
#	150
#	16392
#	44090
#	60321
#	71383
#	90889
#	111556
#	129311
#	146881
#	164761
#	192534
#
# Disc length: 2778 seconds
# Revision: 1
# Processed by: cddbd v1.5.2PL0 Copyright (c) Steve Scherf et al.
# Submitted via: dBpowerAMP V12.0
#
DISCID=a00ad80b
DTITLE=Jumpin' Jack Strobel - Things Have Changed
DYEAR=2013
DGENRE=Blues
TTITLE0=Mother Earth
TTITLE1=Things Have Changed
TTITLE2=Valley of Tears
TTITLE3=Get on the Right Track Baby
TTITLE4=I Don't Want to Know
TTITLE5=New Orleans Blues
TTITLE6=Feels Like Rain
TTITLE7=Bad Bad Whiskey
TTITLE8=You Mean Everything to Me
TTITLE9=Don't Think Twice
TTITLE10=Up the Line
EXTD=
EXTT0=
EXTT1=
EXTT2=
EXTT3=
EXTT4=
EXTT5=
EXTT6=
EXTT7=
EXTT8=
EXTT9=
EXTT10=
PLAYORDER=
